<?xml version="1.0" standalone="no"?>
<!DOCTYPE svg PUBLIC "-//W3C//DTD SVG 20010904//EN"
 "http://www.w3.org/TR/2001/REC-SVG-20010904/DTD/svg10.dtd">
<svg version="1.0" xmlns="http://www.w3.org/2000/svg"
 width="466.000000pt" height="464.000000pt" viewBox="0 0 466.000000 464.000000"
 preserveAspectRatio="xMidYMid meet">

<g transform="translate(0.000000,464.000000) scale(0.100000,-0.100000)"
fill="#000000" stroke="none">
<path d="M1510 4409 c-345 -15 -573 -75 -764 -204 -273 -182 -436 -449 -491
-807 -25 -167 -38 -687 -31 -1323 6 -600 14 -755 46 -912 88 -422 343 -718
730 -847 243 -81 361 -89 1220 -90 913 -1 1060 4 1259 45 500 101 816 438 905
961 28 163 34 413 31 1198 -4 901 -9 972 -91 1220 -88 266 -275 484 -519 609
-175 90 -376 136 -656 150 -200 10 -1412 10 -1639 0z m1624 -379 c339 -19 513
-79 664 -231 126 -125 193 -278 223 -509 16 -124 24 -1483 10 -1740 -13 -243
-22 -304 -64 -430 -78 -237 -271 -409 -527 -469 -143 -34 -282 -41 -900 -48
-643 -6 -1113 6 -1263 32 -191 34 -319 97 -439 217 -127 127 -192 286 -220
538 -18 163 -18 1697 0 1859 29 254 83 396 201 524 153 166 337 238 651 256
200 12 1457 12 1664 1z"/>
<path d="M3335 3669 c-97 -48 -151 -141 -142 -246 20 -260 369 -321 476 -83
27 58 27 150 2 205 -23 50 -84 109 -133 130 -53 22 -153 19 -203 -6z"/>
<path d="M2155 3386 c-117 -19 -188 -42 -301 -96 -587 -282 -791 -1016 -434
-1558 332 -503 1005 -639 1502 -304 251 169 419 434 464 732 18 121 18 200 -1
323 -54 358 -277 656 -610 813 -185 88 -424 123 -620 90z m307 -381 c365 -77
607 -427 548 -792 -36 -226 -179 -420 -382 -516 -107 -51 -152 -64 -263 -72
-148 -12 -300 30 -429 116 -137 91 -232 218 -284 377 -20 62 -25 99 -26 192
-1 138 11 194 69 316 137 285 459 445 767 379z"/>
</g>
</svg>
