<?xml version="1.0" standalone="no"?>
<!DOCTYPE svg PUBLIC "-//W3C//DTD SVG 20010904//EN"
 "http://www.w3.org/TR/2001/REC-SVG-20010904/DTD/svg10.dtd">
<svg version="1.0" xmlns="http://www.w3.org/2000/svg"
 width="196.000000pt" height="208.000000pt" viewBox="0 0 196.000000 208.000000"
 preserveAspectRatio="xMidYMid meet">

<g transform="translate(0.000000,208.000000) scale(0.100000,-0.100000)"
fill="#000000" stroke="none">
<path d="M50 1951 l0 -71 59 0 c41 0 65 -5 80 -17 16 -14 39 -94 110 -388 175
-726 192 -792 211 -823 11 -17 38 -44 61 -59 l43 -28 498 -3 c441 -2 498 -1
499 13 0 8 1 39 1 68 l1 52 -487 5 c-418 4 -488 7 -496 20 -12 18 -24 60 -19
64 4 3 161 42 704 171 340 81 387 99 424 158 16 26 161 582 161 618 0 5 -325
9 -764 9 l-765 0 -16 76 c-31 135 -100 196 -232 202 l-73 4 0 -71z m1680 -357
c0 -3 -21 -91 -46 -197 -34 -141 -52 -198 -68 -213 -15 -16 -70 -33 -201 -64
-99 -23 -270 -64 -380 -90 -396 -96 -456 -110 -460 -110 -2 0 -7 15 -10 33 -4
17 -40 168 -81 334 -41 167 -74 305 -74 308 0 3 297 5 660 5 363 0 660 -3 660
-6z"/>
<path d="M515 472 c-53 -26 -83 -56 -106 -106 -69 -152 65 -324 225 -287 177
41 220 269 70 374 -54 38 -133 46 -189 19z m125 -144 c26 -29 26 -72 -2 -98
-36 -33 -80 -25 -103 21 -36 69 52 134 105 77z"/>
<path d="M1358 480 c-89 -27 -140 -92 -146 -185 -4 -55 0 -70 24 -115 72 -132
259 -142 341 -18 38 57 44 156 14 216 -43 84 -144 129 -233 102z m102 -152
c11 -12 20 -32 20 -45 0 -30 -42 -73 -70 -73 -27 0 -70 43 -70 70 0 29 44 70
74 70 14 0 34 -10 46 -22z"/>
</g>
</svg>
