<?xml version="1.0" standalone="no"?>
<!DOCTYPE svg PUBLIC "-//W3C//DTD SVG 20010904//EN"
 "http://www.w3.org/TR/2001/REC-SVG-20010904/DTD/svg10.dtd">
<svg version="1.0" xmlns="http://www.w3.org/2000/svg"
 width="1134.000000pt" height="1434.000000pt" viewBox="0 0 1134.000000 1434.000000"
 preserveAspectRatio="xMidYMid meet">

<g transform="translate(0.000000,1434.000000) scale(0.100000,-0.100000)"
fill="#000000" stroke="none">
<path d="M5290 14154 c-19 -2 -93 -9 -165 -15 -1398 -114 -2764 -772 -3687
-1776 -780 -849 -1225 -1835 -1329 -2948 -17 -177 -17 -574 -1 -705 121 -960
725 -2244 1830 -3885 187 -278 238 -352 486 -698 891 -1244 2049 -2665 3236
-3970 10 -11 60 43 474 508 179 200 523 599 763 885 2050 2438 3425 4495 4020
6010 240 610 346 1123 329 1580 -29 726 -192 1373 -505 2006 -249 505 -532
900 -941 1318 -933 952 -2131 1520 -3525 1672 -106 11 -267 17 -550 19 -220 2
-416 1 -435 -1z m585 -2814 c642 -52 1220 -313 1655 -750 347 -347 562 -756
646 -1230 29 -162 27 -581 -4 -741 -91 -478 -317 -899 -663 -1235 -402 -389
-907 -630 -1489 -711 -174 -24 -540 -24 -705 1 -482 70 -880 232 -1245 505
-509 381 -840 940 -921 1556 -6 50 -12 169 -12 265 0 96 6 216 12 265 105 801
635 1495 1409 1844 410 186 873 267 1317 231z"/>
</g>
</svg>
