<?xml version="1.0" standalone="no"?>
<!DOCTYPE svg PUBLIC "-//W3C//DTD SVG 20010904//EN"
 "http://www.w3.org/TR/2001/REC-SVG-20010904/DTD/svg10.dtd">
<svg version="1.0" xmlns="http://www.w3.org/2000/svg"
 width="204.000000pt" height="202.000000pt" viewBox="0 0 204.000000 202.000000"
 preserveAspectRatio="xMidYMid meet">

<g transform="translate(0.000000,202.000000) scale(0.100000,-0.100000)"
fill="#000000" stroke="none">
<path d="M670 1916 c-237 -51 -416 -191 -521 -411 -157 -327 -34 -734 278
-923 246 -149 556 -141 791 20 42 29 44 29 64 11 11 -10 136 -134 277 -275
163 -162 267 -259 284 -263 53 -14 104 43 85 95 -4 14 -132 149 -282 299
l-274 274 34 47 c137 191 164 483 63 707 -90 202 -264 349 -484 410 -75 20
-238 25 -315 9z m310 -181 c175 -57 303 -189 366 -375 25 -75 25 -243 0 -320
-111 -337 -477 -494 -791 -340 -192 94 -308 282 -308 500 0 115 20 189 74 282
135 230 409 335 659 253z"/>
</g>
</svg>
