<?xml version="1.0" standalone="no"?>
<!DOCTYPE svg PUBLIC "-//W3C//DTD SVG 20010904//EN"
 "http://www.w3.org/TR/2001/REC-SVG-20010904/DTD/svg10.dtd">
<svg version="1.0" xmlns="http://www.w3.org/2000/svg"
 width="464.000000pt" height="468.000000pt" viewBox="0 0 464.000000 468.000000"
 preserveAspectRatio="xMidYMid meet">

<g transform="translate(0.000000,468.000000) scale(0.100000,-0.100000)"
fill="#000000" stroke="none">
<path d="M2150 4433 c-743 -65 -1416 -543 -1720 -1220 -258 -576 -249 -1213
24 -1778 l66 -135 -145 -529 c-80 -291 -145 -532 -145 -535 0 -12 31 -5 326
73 164 43 406 107 537 141 l238 62 117 -55 c268 -126 512 -184 822 -194 202
-7 367 10 558 57 858 210 1490 937 1583 1821 18 167 7 422 -25 592 -174 921
-933 1611 -1866 1697 -103 10 -275 11 -370 3z m475 -373 c355 -62 651 -212
912 -464 482 -464 653 -1159 441 -1796 -147 -442 -480 -819 -899 -1018 -534
-253 -1141 -221 -1660 89 l-35 21 -324 -85 c-179 -47 -326 -84 -328 -82 -2 1
36 145 83 318 l87 315 -51 84 c-352 584 -337 1308 37 1868 134 199 284 349
487 485 366 246 813 340 1250 265z"/>
<path d="M1555 3311 c-45 -11 -66 -25 -117 -78 -59 -60 -111 -146 -140 -232
-19 -55 -22 -87 -22 -186 0 -137 22 -218 94 -360 85 -164 282 -417 461 -590
240 -232 443 -355 765 -463 265 -90 446 -73 634 59 73 51 105 92 131 167 27
76 37 205 18 229 -15 18 -408 212 -470 232 -47 15 -75 3 -113 -51 -66 -92
-170 -209 -192 -214 -15 -4 -56 9 -119 36 -142 63 -263 141 -398 260 -48 42
-161 180 -221 270 -60 90 -69 127 -38 157 36 35 122 145 138 174 8 17 16 43
16 58 1 30 -172 459 -201 498 -9 12 -23 25 -31 27 -31 10 -166 15 -195 7z"/>
</g>
</svg>
